<mxfile host="drawio-plugin" modified="2023-08-13T20:48:11.539Z" agent="5.0 (X11; Linux x86_64) AppleWebKit/537.36 (KHTML, like Gecko) Chrome/111.0.0.0 Safari/537.36" etag="2-dXAt_vo_jrvtsXVFtt" version="20.5.3" type="embed"><diagram id="LA5LD3KmcHBe5tAMik5O" name="Page-1"><mxGraphModel dx="1004" dy="1560" grid="1" gridSize="10" guides="1" tooltips="1" connect="1" arrows="1" fold="1" page="1" pageScale="1" pageWidth="850" pageHeight="1100" math="0" shadow="0"><root><mxCell id="0"/><mxCell id="1" parent="0"/><mxCell id="68txFcWhUuA0pIBhfksG-36" value="" style="rounded=0;whiteSpace=wrap;html=1;fillColor=none;strokeColor=none;" parent="1" vertex="1"><mxGeometry x="200" width="100" height="100" as="geometry"/></mxCell><mxCell id="6" value="" style="verticalLabelPosition=bottom;verticalAlign=top;html=1;shape=mxgraph.basic.polygon;polyCoords=[[0.8,0.59],[0.57,0.59],[0.75,0.87],[0.61,0.92],[0.42,0.63],[0.24,0.76],[0.24,0.53],[0.24,0.17]];polyline=0;fillColor=default;strokeColor=none;aspect=fixed;" vertex="1" parent="1"><mxGeometry x="200" y="-5" width="79.72" height="105" as="geometry"/></mxCell><mxCell id="68txFcWhUuA0pIBhfksG-35" value="" style="rounded=0;whiteSpace=wrap;html=1;fillColor=none;strokeColor=none;" parent="1" vertex="1"><mxGeometry x="100" width="100" height="100" as="geometry"/></mxCell><mxCell id="4" value="" style="verticalLabelPosition=bottom;verticalAlign=top;html=1;shape=mxgraph.basic.polygon;polyCoords=[[0.8,0.59],[0.57,0.59],[0.75,0.87],[0.61,0.92],[0.42,0.63],[0.24,0.76],[0.24,0.53],[0.24,0.17]];polyline=0;fillColor=default;strokeColor=none;aspect=fixed;" vertex="1" parent="1"><mxGeometry x="100" y="-5" width="79.72" height="105" as="geometry"/></mxCell><mxCell id="68txFcWhUuA0pIBhfksG-34" value="" style="rounded=0;whiteSpace=wrap;html=1;fillColor=none;strokeColor=none;" parent="1" vertex="1"><mxGeometry width="100" height="100" as="geometry"/></mxCell><mxCell id="3" value="" style="verticalLabelPosition=bottom;verticalAlign=top;html=1;shape=mxgraph.basic.polygon;polyCoords=[[0.8,0.59],[0.57,0.59],[0.75,0.87],[0.61,0.92],[0.42,0.63],[0.24,0.76],[0.24,0.53],[0.24,0.17]];polyline=0;fillColor=default;strokeColor=none;aspect=fixed;" vertex="1" parent="1"><mxGeometry x="10.14" y="-5" width="79.72" height="105" as="geometry"/></mxCell><mxCell id="7" value="" style="group" vertex="1" connectable="0" parent="1"><mxGeometry x="240" y="23" width="50" height="45" as="geometry"/></mxCell><mxCell id="68txFcWhUuA0pIBhfksG-27" value="" style="rounded=1;whiteSpace=wrap;html=1;fillColor=#FF9200;strokeColor=none;" parent="7" vertex="1"><mxGeometry width="50" height="15" as="geometry"/></mxCell><mxCell id="68txFcWhUuA0pIBhfksG-31" value="" style="endArrow=none;html=1;rounded=0;strokeWidth=12;fillColor=default;strokeColor=#FF9200;exitX=0.252;exitY=0.063;exitDx=0;exitDy=0;exitPerimeter=0;" parent="7" edge="1"><mxGeometry width="50" height="50" relative="1" as="geometry"><mxPoint x="15" y="10" as="sourcePoint"/><mxPoint x="15" y="35" as="targetPoint"/></mxGeometry></mxCell><mxCell id="68txFcWhUuA0pIBhfksG-32" value="" style="rounded=1;whiteSpace=wrap;html=1;fillColor=#FF9200;strokeColor=none;" parent="7" vertex="1"><mxGeometry y="23" width="50" height="15" as="geometry"/></mxCell><mxCell id="68txFcWhUuA0pIBhfksG-33" value="" style="endArrow=none;html=1;rounded=0;strokeWidth=12;fillColor=default;strokeColor=#FF9200;exitX=0.252;exitY=0.063;exitDx=0;exitDy=0;exitPerimeter=0;" parent="7" edge="1"><mxGeometry width="50" height="50" relative="1" as="geometry"><mxPoint x="35" y="10" as="sourcePoint"/><mxPoint x="35" y="35" as="targetPoint"/></mxGeometry></mxCell><mxCell id="68txFcWhUuA0pIBhfksG-20" value="" style="ellipse;whiteSpace=wrap;html=1;aspect=fixed;strokeColor=none;fillColor=#FF9200;" parent="1" vertex="1"><mxGeometry x="170" y="10" width="20" height="20" as="geometry"/></mxCell><mxCell id="68txFcWhUuA0pIBhfksG-21" value="" style="ellipse;whiteSpace=wrap;html=1;aspect=fixed;strokeColor=none;fillColor=#FF9200;" parent="1" vertex="1"><mxGeometry x="140" y="30" width="20" height="20" as="geometry"/></mxCell><mxCell id="68txFcWhUuA0pIBhfksG-23" value="" style="ellipse;whiteSpace=wrap;html=1;aspect=fixed;strokeColor=none;fillColor=#FF9200;" parent="1" vertex="1"><mxGeometry x="170" y="50" width="20" height="20" as="geometry"/></mxCell><mxCell id="68txFcWhUuA0pIBhfksG-24" value="" style="endArrow=none;html=1;rounded=0;strokeWidth=6;fillColor=default;entryX=0.5;entryY=0.5;entryDx=0;entryDy=0;entryPerimeter=0;strokeColor=#FF9200;exitX=0.5;exitY=0.5;exitDx=0;exitDy=0;exitPerimeter=0;" parent="1" source="68txFcWhUuA0pIBhfksG-21" target="68txFcWhUuA0pIBhfksG-20" edge="1"><mxGeometry width="50" height="50" relative="1" as="geometry"><mxPoint x="160" y="80" as="sourcePoint"/><mxPoint x="210" y="30" as="targetPoint"/></mxGeometry></mxCell><mxCell id="68txFcWhUuA0pIBhfksG-25" value="" style="endArrow=none;html=1;rounded=0;strokeWidth=6;fillColor=default;strokeColor=#FF9200;entryX=0.5;entryY=0.5;entryDx=0;entryDy=0;entryPerimeter=0;" parent="1" target="68txFcWhUuA0pIBhfksG-23" edge="1"><mxGeometry width="50" height="50" relative="1" as="geometry"><mxPoint x="150" y="40" as="sourcePoint"/><mxPoint x="190" y="30" as="targetPoint"/></mxGeometry></mxCell></root></mxGraphModel></diagram></mxfile>